<?xml version="1.0" encoding="UTF-8" standalone="no"?>
<!-- Generator: Adobe Illustrator 16.0.0, SVG Export Plug-In . SVG Version: 6.00 Build 0)  -->

<svg
   xmlns:dc="http://purl.org/dc/elements/1.1/"
   xmlns:cc="http://creativecommons.org/ns#"
   xmlns:rdf="http://www.w3.org/1999/02/22-rdf-syntax-ns#"
   xmlns:svg="http://www.w3.org/2000/svg"
   xmlns="http://www.w3.org/2000/svg"
   xmlns:sodipodi="http://sodipodi.sourceforge.net/DTD/sodipodi-0.dtd"
   xmlns:inkscape="http://www.inkscape.org/namespaces/inkscape"
   version="1.1"
   id="Capa_1"
   x="0px"
   y="0px"
   width="23px"
   height="21px"
   viewBox="0 0 47 47"
   style="enable-background:new 0 0 47 47;"
   xml:space="preserve"
   sodipodi:docname="calendar.svg"
   inkscape:version="0.92.2 (5c3e80d, 2017-08-06)"><metadata
     id="metadata3801"><rdf:RDF><cc:Work
         rdf:about=""><dc:format>image/svg+xml</dc:format><dc:type
           rdf:resource="http://purl.org/dc/dcmitype/StillImage" /></cc:Work></rdf:RDF></metadata><defs
     id="defs3799" /><sodipodi:namedview
     pagecolor="#ffffff"
     bordercolor="#666666"
     borderopacity="1"
     objecttolerance="10"
     gridtolerance="10"
     guidetolerance="10"
     inkscape:pageopacity="0"
     inkscape:pageshadow="2"
     inkscape:window-width="1600"
     inkscape:window-height="837"
     id="namedview3797"
     showgrid="false"
     inkscape:zoom="14.212766"
     inkscape:cx="23.5"
     inkscape:cy="23.5"
     inkscape:window-x="-8"
     inkscape:window-y="-8"
     inkscape:window-maximized="1"
     inkscape:current-layer="Capa_1" /><g
     id="g3764"><g
       id="Layer_1_153_"><g
         id="g3761"><path
           d="M23.5,11.75c1.18,0,2.137-0.957,2.137-2.136V4.273c0-1.18-0.957-2.137-2.137-2.137c-1.179,0-2.136,0.957-2.136,2.137     v1.068H16.29v4.273h5.074C21.364,10.793,22.32,11.75,23.5,11.75z"
           id="path3751"
           style="fill:#ffffff" /><path
           d="M34.982,11.75c1.181,0,2.137-0.957,2.137-2.136V4.273c0-1.18-0.957-2.137-2.137-2.137c-1.178,0-2.135,0.957-2.135,2.137     v1.068h-5.074v4.273h5.074C32.848,10.793,33.803,11.75,34.982,11.75z"
           id="path3753"
           style="fill:#ffffff" /><path
           d="M44.863,5.341h-5.607v4.273h3.471v6.409H4.273V9.614h5.608c0,1.18,0.957,2.136,2.136,2.136     c1.179,0,2.136-0.957,2.136-2.136V4.273c0-1.18-0.957-2.137-2.136-2.137c-1.179,0-2.136,0.957-2.136,2.137v1.068H2.136     C0.956,5.341,0,6.298,0,7.477v32.045c0,1.181,0.957,2.137,2.136,2.137H13.11c-0.917-1.271-1.604-2.715-2.006-4.273H4.273V18.159     h38.454v19.227h-6.83c-0.403,1.559-1.09,3.002-2.006,4.273h10.973c1.181,0,2.137-0.957,2.137-2.137V7.477     C47,6.297,46.043,5.341,44.863,5.341z"
           id="path3755"
           style="fill:#ffffff" /><path
           d="M28.564,35.985l-3.381-1.952c-0.045-0.513-0.312-0.962-0.713-1.242v-5.892c0-0.537-0.435-0.972-0.971-0.972     s-0.971,0.435-0.971,0.972v5.892c-0.439,0.308-0.728,0.815-0.728,1.392c0,0.937,0.763,1.698,1.699,1.698     c0.257,0,0.498-0.062,0.717-0.164l3.377,1.95c0.153,0.088,0.32,0.13,0.485,0.13c0.335,0,0.662-0.174,0.842-0.485     C29.189,36.847,29.029,36.253,28.564,35.985z M23.5,34.91c-0.401,0-0.728-0.327-0.728-0.729c0-0.4,0.327-0.728,0.728-0.728     s0.729,0.327,0.729,0.728C24.229,34.583,23.901,34.91,23.5,34.91z"
           id="path3757"
           style="fill:#ffffff" /><path
           d="M23.5,23.5c-5.89,0-10.682,4.792-10.682,10.683c0,5.89,4.792,10.682,10.682,10.682c5.891,0,10.682-4.792,10.682-10.682     C34.182,28.292,29.391,23.5,23.5,23.5z M23.5,42.921c-4.819,0-8.739-3.92-8.739-8.74s3.92-8.738,8.739-8.738     c4.818,0,8.738,3.92,8.738,8.738C32.238,39,28.318,42.921,23.5,42.921z"
           id="path3759"
           style="fill:#ffffff" /></g></g></g><g
     id="g3766" /><g
     id="g3768" /><g
     id="g3770" /><g
     id="g3772" /><g
     id="g3774" /><g
     id="g3776" /><g
     id="g3778" /><g
     id="g3780" /><g
     id="g3782" /><g
     id="g3784" /><g
     id="g3786" /><g
     id="g3788" /><g
     id="g3790" /><g
     id="g3792" /><g
     id="g3794" /></svg>